<?xml version="1.0" standalone="no"?>
<!DOCTYPE svg PUBLIC "-//W3C//DTD SVG 20010904//EN"
 "http://www.w3.org/TR/2001/REC-SVG-20010904/DTD/svg10.dtd">
<svg version="1.0" xmlns="http://www.w3.org/2000/svg"
 width="452.000000pt" height="452.000000pt" viewBox="0 0 452.000000 452.000000"
 preserveAspectRatio="xMidYMid meet">

<g transform="translate(0.000000,452.000000) scale(0.100000,-0.100000)"
fill="#000000" stroke="none">
<path d="M910 3934 c-149 -40 -286 -179 -325 -329 -13 -52 -15 -219 -15 -1345
0 -1405 -2 -1348 57 -1450 38 -64 112 -140 175 -177 109 -66 39 -63 1458 -63
1405 0 1348 -2 1450 57 65 38 146 118 180 178 63 110 60 43 60 1455 0 1130 -2
1293 -16 1345 -40 155 -174 289 -329 330 -87 22 -2610 22 -2695 -1z m624
-1037 c13 -13 37 -67 56 -123 127 -386 298 -662 368 -592 16 16 17 456 1 513
-6 22 -27 63 -45 91 -38 57 -41 79 -18 112 15 22 18 22 269 22 251 0 254 0
269 -22 14 -19 16 -66 16 -306 l0 -283 26 -26 c30 -30 68 -27 115 10 63 49
218 279 326 483 78 147 71 144 267 144 188 0 206 -6 206 -68 -1 -72 -93 -245
-289 -541 -51 -77 -81 -133 -81 -149 0 -27 14 -47 189 -267 118 -150 181 -257
181 -310 0 -30 -6 -47 -21 -61 -19 -17 -38 -19 -189 -19 -200 0 -188 -5 -298
136 -102 132 -223 261 -278 298 -63 42 -130 44 -144 5 -6 -14 -10 -104 -10
-200 0 -97 -4 -184 -10 -194 -22 -41 -147 -58 -265 -37 -335 61 -646 340 -870
782 -99 195 -175 429 -175 541 0 81 9 84 213 84 162 0 169 -1 191 -23z"/>
</g>
</svg>
